<svg xmlns="http://www.w3.org/2000/svg" width="400" height="200" viewBox="0 0 400 200">
<g transform="translate(0.00,-17.71) scale(0.41667)">

<g>
&#x9;<path fill="#34A1C2" d="M427.7,291.5c-4-1.8-7.4-4-10.3-7.1c-2.9-2.9-5.3-6.4-7.1-10.3c-1.8-4-2.5-8.2-2.5-12.9s0.8-8.8,2.5-12.9&#xA;&#x9;&#x9;s4-7.4,7.1-10.3c2.9-2.9,6.4-5.3,10.3-7.1c4-1.8,8.2-2.5,12.9-2.5h126.7c3.3,0,6.2,1.1,8.4,3.4c2.3,2.3,3.4,5.2,3.4,8.4&#xA;&#x9;&#x9;c0,3.3-1.1,6.2-3.4,8.4c-2.3,2.3-5.2,3.4-8.4,3.4H440c-2.4,0-4.7,0.8-6.6,2.5s-2.9,3.9-2.9,6.6c0,2.4,1,4.7,2.9,6.4s4,2.8,6.6,2.8&#xA;&#x9;&#x9;h113.2c4.7,0,8.8,0.8,13.1,2.5c4,1.8,7.6,4,10.5,7.1c2.9,2.9,5.3,6.4,7.1,10.5c1.8,4,2.5,8.4,2.5,13.1s-0.8,8.8-2.5,12.9&#xA;&#x9;&#x9;c-1.8,4-4,7.4-7.1,10.3c-2.9,2.9-6.4,5.3-10.5,6.9c-4,1.6-8.4,2.4-13.1,2.4H426.9c-3.3,0-6.2-1.1-8.4-3.4c-2.3-2.3-3.4-5.2-3.4-8.4&#xA;&#x9;&#x9;c0-3.3,1.1-6.2,3.4-8.4c2.3-2.3,5.2-3.4,8.4-3.4h127.4c2.4,0,4.7-0.8,6.4-2.5s2.8-3.9,2.8-6.3c0-2.5-1-4.8-2.8-6.6&#xA;&#x9;&#x9;c-1.8-1.8-4-2.8-6.4-2.8h-114C435.9,294.1,431.5,293.1,427.7,291.5z"></path>
&#x9;<path fill="#34A1C2" d="M278.7,309.4c0-4.4,1.5-7.9,4.5-11c2.9-2.9,6.6-4.5,11-4.5s7.9,1.5,11,4.5c2.9,2.9,4.5,6.6,4.5,11&#xA;&#x9;&#x9;s-1.5,7.9-4.5,11c-2.9,2.9-6.6,4.5-11,4.5s-7.9-1.5-11-4.5C280.2,317.3,278.7,313.7,278.7,309.4z"></path>
&#x9;<path fill="#39A8E9" d="M427.7,291.5c-4-1.8-7.4-4-10.3-7.1c-2.9-2.9-5.3-6.4-7.1-10.3c-1.8-4-2.5-8.2-2.5-12.9s0.8-8.8,2.5-12.9&#xA;&#x9;&#x9;s4-7.4,7.1-10.3c2.9-2.9,6.4-5.3,10.3-7.1c4-1.8,8.2-2.5,12.9-2.5h126.7c3.3,0,6.2,1.1,8.4,3.4c2.3,2.3,3.4,5.2,3.4,8.4&#xA;&#x9;&#x9;c0,3.3-1.1,6.2-3.4,8.4c-2.3,2.3-5.2,3.4-8.4,3.4H440c-2.4,0-4.7,0.8-6.6,2.5s-2.9,3.9-2.9,6.6c0,2.4,1,4.7,2.9,6.4s4,2.8,6.6,2.8&#xA;&#x9;&#x9;h113.2c4.7,0,8.8,0.8,13.1,2.5c4,1.8,7.6,4,10.5,7.1c2.9,2.9,5.3,6.4,7.1,10.5c1.8,4,2.5,8.4,2.5,13.1s-0.8,8.8-2.5,12.9&#xA;&#x9;&#x9;c-1.8,4-4,7.4-7.1,10.3c-2.9,2.9-6.4,5.3-10.5,6.9c-4,1.6-8.4,2.4-13.1,2.4H426.9c-3.3,0-6.2-1.1-8.4-3.4c-2.3-2.3-3.4-5.2-3.4-8.4&#xA;&#x9;&#x9;c0-3.3,1.1-6.2,3.4-8.4c2.3-2.3,5.2-3.4,8.4-3.4h127.4c2.4,0,4.7-0.8,6.4-2.5s2.8-3.9,2.8-6.3c0-2.5-1-4.8-2.8-6.6&#xA;&#x9;&#x9;c-1.8-1.8-4-2.8-6.4-2.8h-114C435.9,294.1,431.5,293.1,427.7,291.5z"></path>
&#x9;<path fill="#39A8E9" d="M768,228.1c3.3,0,6.2,1.1,8.4,3.4c2.3,2.3,3.4,5.2,3.4,8.4c0,3-1.1,5.8-3.3,8.1c-2.1,2.3-4.7,3.5-7.7,3.9&#xA;&#x9;&#x9;H731c-5,0.4-9.1,1.5-12.2,3.5c-3.3,2.1-5.8,4.5-7.6,7.6c-1.8,2.9-3,6.2-3.7,9.7c-0.6,3.4-1,6.6-1,9.3v42.1c0,3.3-1.1,6.2-3.4,8.4&#xA;&#x9;&#x9;c-2.3,2.3-5.2,3.4-8.4,3.4c-3.3,0-6.2-1.1-8.4-3.4s-3.4-5.2-3.4-8.4v-42c0-5.2,0.6-10.3,1.9-15.5c1.3-5.2,3.3-10.2,5.9-14.6h-69.3&#xA;&#x9;&#x9;c-3.3,0-6.2-1.1-8.4-3.4c-2.3-2.3-3.4-5.2-3.4-8.4c0-3.3,1.1-6.2,3.4-8.4c2.3-2.3,5.2-3.4,8.4-3.4H768V228.1L768,228.1L768,228.1z"></path>
&#x9;<path fill="#71BD00" d="M226.5,331.7c-2.4,2.9-5.5,4.5-9.2,4.5c-3.3,0-6.2-1.1-8.4-3.4c-2.3-2.3-3.4-5.2-3.4-8.4&#xA;&#x9;&#x9;c0-2.9,0.8-5.3,2.4-7.1l60.1-80.9c2.8-3.9,6.4-6.9,11.1-9.3c4.7-2.4,9.6-3.5,14.9-3.5c5,0,9.7,1.1,14.2,3.3c4.5,2.1,8.1,5.2,11,8.8&#xA;&#x9;&#x9;l60.1,80.5c1,1.1,1.8,2.4,2.4,3.9s1,2.9,1,4.5c0,3.3-1.1,6.2-3.4,8.4c-2.3,2.3-5.2,3.4-8.4,3.4c-4,0-7.1-1.6-9.3-4.7l-57.7-76.9&#xA;&#x9;&#x9;c-1.1-1.3-2.5-2.8-4.4-4.4c-1.8-1.6-3.5-2.4-5.3-2.4s-3.5,0.8-5.3,2.4c-1.8,1.6-3,3-4,4.4L226.5,331.7z"></path>
&#x9;<g>
&#x9;&#x9;<path fill="#39A8E9" d="M844.8,309.4c0-4.4,1.5-7.9,4.5-11c2.9-2.9,6.6-4.5,11-4.5s7.9,1.5,11,4.5c2.9,2.9,4.5,6.6,4.5,11&#xA;&#x9;&#x9;&#x9;s-1.5,7.9-4.5,11c-2.9,2.9-6.6,4.5-11,4.5s-7.9-1.5-11-4.5C846.3,317.3,844.8,313.7,844.8,309.4z"></path>
&#x9;&#x9;<path fill="#71BD00" d="M792.5,331.7c-2.4,2.9-5.5,4.5-9.2,4.5c-3.3,0-6.2-1.1-8.4-3.4c-2.3-2.3-3.4-5.2-3.4-8.4&#xA;&#x9;&#x9;&#x9;c0-2.9,0.8-5.3,2.4-7.1l60.1-80.9c2.8-3.9,6.4-6.9,11.1-9.3c4.7-2.4,9.6-3.5,14.9-3.5c5,0,9.7,1.1,14.2,3.3&#xA;&#x9;&#x9;&#x9;c4.5,2.1,8.1,5.2,11,8.8l60,80.3c1,1.1,1.8,2.4,2.4,3.9c0.6,1.5,1,2.9,1,4.5c0,3.3-1.1,6.2-3.4,8.4c-2.3,2.3-5.2,3.4-8.4,3.4&#xA;&#x9;&#x9;&#x9;c-4,0-7.1-1.6-9.3-4.7l-57.7-76.9c-1.1-1.3-2.5-2.8-4.4-4.4c-1.8-1.6-3.5-2.4-5.3-2.4s-3.5,0.8-5.3,2.4c-1.8,1.6-3,3-4,4.4&#xA;&#x9;&#x9;&#x9;L792.5,331.7z"></path>
&#x9;</g>
&#x9;<path fill="#39A8E9" d="M207.2,231.6c-2.3-2.3-5.2-3.4-8.4-3.4H57c-7.1,0-13.4,1.6-19,5c-5.7,3.3-10.3,7.6-14.4,12.7&#xA;&#x9;&#x9;c-4,5.2-6.9,11-9.1,17.3c-1.9,6.3-3,12.6-3,18.9v37.4v4.7v0.5c0-0.1,0-0.1,0-0.4c0,3.3,1.1,5.9,3.4,8.2s5.2,3.4,8.4,3.4&#xA;&#x9;&#x9;c3.3,0,6.2-1.1,8.4-3.4c2.3-2.3,3.4-5.2,3.4-8.4v-1.3c0.1-2.9,0.6-6.2,1.3-9.3c0.8-3.3,2.1-6.4,4-9.3s4.7-5.2,8.2-7.1&#xA;&#x9;&#x9;c3.4-1.8,7.9-2.8,13.4-2.8h89.7c3.3,0,6.2-1.1,8.4-3.4c2.3-2.3,3.4-5.2,3.4-8.4c0-3.3-1.1-6.2-3.4-8.4c-2.3-2.3-5.2-3.4-8.4-3.4&#xA;&#x9;&#x9;H57.3c-7.1,0-13.4,1.6-19,5c-0.8,0.5-1.6,1.1-2.4,1.6c0.1-2.1,0.6-4.2,1.1-6.3c0.8-3.3,2.1-6.4,4-9.3s4.7-5.2,8.2-7.1&#xA;&#x9;&#x9;c3.4-1.8,7.9-2.8,13.4-2.8h136.5c3.3,0,6.2-1.1,8.4-3.4c2.3-2.3,3.4-5.2,3.4-8.4C210.8,236.8,209.8,233.9,207.2,231.6z"></path>
</g>

</g>
</svg>