<svg xmlns="http://www.w3.org/2000/svg" width="400" height="200" viewBox="0 0 400 200">
<g transform="translate(0.00,51.98) scale(0.30984)">

<path d="M148.185 206.163V103.291H174.929C183.91 103.291 192.291 98.0398 197.244 89.3119L240.32 13.3916C244.843 5.42091 253.909 0.410156 263.807 0.410156H296.745V103.286H269.998C261.018 103.286 252.637 108.538 247.686 117.265L204.609 193.182C200.086 201.153 191.02 206.163 181.122 206.163H148.185Z" fill="#E0E0E0"></path>
<path d="M0 206.158V103.286H26.7449C35.7255 103.286 44.1059 98.0346 49.0588 89.3068L92.1359 13.3864C96.6585 5.41578 105.724 0.405029 115.622 0.405029H148.561V103.281H121.814C112.833 103.281 104.452 108.532 99.5018 117.26L56.4239 193.177C51.9013 201.147 42.8352 206.158 32.9371 206.158H0Z" fill="#E0E0E0"></path>
<path d="M741.049 207.06C678.008 207.06 635.651 165.378 635.651 103.344C635.651 41.3101 678.008 0 741.049 0C804.089 0 846.074 41.5313 846.074 103.344C846.074 165.157 803.869 207.06 741.049 207.06ZM741.064 35.7332C704.755 35.7332 680.359 62.9787 680.359 103.531C680.359 144.083 704.755 171.329 741.064 171.329C777.133 171.329 801.366 144.083 801.366 103.531C801.366 62.9787 777.133 35.7332 741.064 35.7332Z" fill="white"></path>
<path d="M505.08 309.237C476.116 309.237 447.325 300.492 429.215 286.77V253.68C444.033 264.858 480.417 275.24 505.893 275.24C544.469 275.24 567.496 250.16 567.496 214.311L567.479 171.453L565.499 174.573C552.951 194.348 531.88 204.8 504.56 204.8C458.674 204.8 429.025 172.956 429.025 123.674V2.24451H469.968V119.284C469.968 148.94 487.077 166.645 515.73 166.645C531.289 166.645 567.476 160.941 567.476 108.111V2.24451H608.422L608.427 214.365C608.427 279.901 556.523 309.237 505.08 309.237Z" fill="white"></path>
<path d="M949.356 309.236C920.392 309.236 891.601 300.492 873.491 286.77V253.68C888.31 264.857 924.693 275.24 950.17 275.24C988.745 275.24 1011.77 250.16 1011.77 214.311L1011.75 171.452L1009.78 174.573C997.227 194.348 976.156 204.799 948.837 204.799C902.95 204.799 873.301 172.956 873.301 123.673V2.24426H914.244V119.284C914.244 148.939 931.354 166.645 960.007 166.645C975.565 166.645 1011.75 160.941 1011.75 108.111V2.24426H1052.7L1052.7 214.365C1052.7 279.901 1000.8 309.236 949.356 309.236Z" fill="white"></path>
<path d="M1185.51 207.06C1122.36 207.06 1079.93 165.378 1079.93 103.344C1079.93 41.3101 1122.36 0 1185.51 0C1248.67 0 1290.73 41.5313 1290.73 103.344C1290.73 165.157 1248.45 207.06 1185.51 207.06ZM1185.53 35.7332C1149.15 35.7332 1124.71 62.9787 1124.71 103.531C1124.71 144.083 1149.15 171.329 1185.53 171.329C1221.66 171.329 1245.94 144.083 1245.94 103.531C1245.94 62.9787 1221.66 35.7332 1185.53 35.7332Z" fill="white"></path>

</g>
</svg>